# xmcd CD database file
#
# Track frame offsets:
#	150
#	14208
#	32163
#	50661
#	62375
#	74844
#	88185
#	101383
#	115929
#	133683
#	149798
#	165123
#	181200
#	192305
#	207381
#	222850
#	239415
#	266037
#	279201
#	292297
#	307330
#	320364
#	334214
#	343437
#
# Disc length: 4746 seconds
#
# Revision: 0
# Processed by: cddbd v1.5.2PL0 Copyright (c) Steve Scherf et al.
# Submitted via: CDex 1.51
#
DISCID=90128818
DTITLE=Ball, Kenny and His Jazzmen - As Good As It Gets [CD 2]
DYEAR=2013
DGENRE=Jazz
TTITLE0=Puttin' On The Ritz
TTITLE1=Ostrich Walk
TTITLE2=Tin Roof Blues
TTITLE3=Swannee River
TTITLE4=March Of The Siamese Children
TTITLE5=The Pay Off
TTITLE6=Nobody's Sweetheart
TTITLE7=That's My Weakness Now
TTITLE8=That's A Plenty
TTITLE9=Black And Tan Fantasy
TTITLE10=Farewell Blues
TTITLE11=Kansas City Stomp
TTITLE12=Lollie Rag
TTITLE13=When The Saints Go Marching In
TTITLE14=Hiawatha
TTITLE15=Black Bottom Stomp
TTITLE16=Baby Doll
TTITLE17=Riverboat Shuffle
TTITLE18=Breezin' Along With The Breeze
TTITLE19=St. James Infirmary
TTITLE20=Struttin' With Some Barbeque
TTITLE21=Wabash Cannonball
TTITLE22=Waterloo
TTITLE23=Hawaiian War Chant
EXTD=YEAR: 2013
EXTT0=
EXTT1=
EXTT2=
EXTT3=
EXTT4=
EXTT5=
EXTT6=
EXTT7=
EXTT8=
EXTT9=
EXTT10=
EXTT11=
EXTT12=
EXTT13=
EXTT14=
EXTT15=
EXTT16=
EXTT17=
EXTT18=
EXTT19=
EXTT20=
EXTT21=
EXTT22=
EXTT23=
PLAYORDER=
